<svg xmlns="http://www.w3.org/2000/svg" xmlns:xlink="http://www.w3.org/1999/xlink" version="1.1" x="0px" y="0px" viewBox="0 0 100 100" enable-background="new 0 0 100 100" xml:space="preserve"><g><g><g><path d="M61.287,67.735c-5.468,0-10.407-1.904-13.254-4.713c-1.603-1.565-2.546-3.45-2.546-5.411     c0-5.449,7.24-10.105,15.8-10.105c3.959,0,7.636,0.98,10.444,2.583c3.281,1.885,5.393,4.6,5.393,7.522     c0,3.45-0.792,5.543-5.091,7.428c-0.471,0.208-1.357,0.584-2.111,6.184l-5.788-3.582l-0.396,0.057     c-0.51,0.075-0.735,0.075-0.924,0.075c-0.133,0-0.265,0-0.415-0.019C62.136,67.754,61.796,67.735,61.287,67.735z"></path><path d="M44.563,62.965c-1.149-0.075-2.262-0.208-3.355-0.377l-6.392,5.6l-1.471-7.862c-7.032-3.054-11.67-8.39-11.67-14.479     c0-9.483,11.388-17.194,25.414-17.194c14.046,0,25.434,7.711,25.434,17.194c0,0.49-0.019,0.961-0.094,1.414     c-3.055-1.622-6.92-2.583-11.143-2.583c-10.237,0-18.288,5.694-18.288,12.934C42.999,59.515,43.564,61.344,44.563,62.965z"></path></g></g></g></svg>