<?xml version="1.0" standalone="no"?>
<!DOCTYPE svg PUBLIC "-//W3C//DTD SVG 1.1//EN" "http://www.w3.org/Graphics/SVG/1.1/DTD/svg11.dtd">
<svg width="100%" height="100%" viewBox="0 0 120 120" version="1.1" xmlns="http://www.w3.org/2000/svg" xmlns:xlink="http://www.w3.org/1999/xlink" xml:space="preserve" style="fill-rule:evenodd;clip-rule:evenodd;stroke-linejoin:round;stroke-miterlimit:1.41421;">
    <g transform="matrix(2.09028,0,0,2.09028,-77.3545,-78.8499)">
        <circle cx="65.711" cy="66.426" r="28.704" style="fill:rgb(0,55,116);"/>
    </g>
    <g transform="matrix(0.761784,3.94434e-32,3.85776e-32,0.761784,21.9112,21.9108)">
        <path d="M79.062,24.173L79.041,24.162C78.973,24.132 78.904,24.1 78.837,24.069L42.392,7.337C42.392,7.337 45.457,21.441 46.85,25.356C46.85,25.356 5.096,12.875 0,11.686C1.67,18.206 30.607,74.178 30.607,74.178C36.455,86.051 50.001,92.663 64.129,92.663C83.94,92.663 99.999,76.604 99.999,56.794C100,42.313 91.418,29.837 79.062,24.173Z" style="fill:rgb(255,139,0);fill-rule:nonzero;"/>
        <clipPath id="_clip1">
            <path d="M79.062,24.173L79.041,24.162C78.973,24.132 78.904,24.1 78.837,24.069L42.392,7.337C42.392,7.337 45.457,21.441 46.85,25.356C46.85,25.356 5.096,12.875 0,11.686C1.67,18.206 30.607,74.178 30.607,74.178C36.455,86.051 50.001,92.663 64.129,92.663C83.94,92.663 99.999,76.604 99.999,56.794C100,42.313 91.418,29.837 79.062,24.173Z" clip-rule="nonzero"/>
        </clipPath>
        <g clip-path="url(#_clip1)">
            <g transform="matrix(2.36625,0,0,2.37598,-116.046,-105.713)">
                <path d="M74.372,49.632C83.716,49.632 88.144,56.192 88.144,65.536C88.144,74.88 80.558,82.466 71.214,82.466C61.87,82.466 56.889,76.7 56.889,67.356C56.889,66.536 54.607,65.513 54.059,64.57C51.404,59.997 46.315,53.608 48.401,49.662C49.563,47.463 63.531,46.099 65.451,45.286C67.476,44.429 72.036,49.632 74.372,49.632Z" style="fill:rgb(255,151,0);"/>
            </g>
            <g transform="matrix(2.36625,0,0,2.37598,-122.911,-111.222)">
                <path d="M74.372,49.632C83.716,49.632 88.144,56.192 88.144,65.536C88.144,74.88 80.558,82.466 71.214,82.466C61.87,82.466 56.889,76.7 56.889,67.356C56.889,66.536 54.607,65.513 54.059,64.57C51.404,59.997 46.315,53.608 48.401,49.662C49.563,47.463 63.531,46.099 65.451,45.286C67.476,44.429 72.036,49.632 74.372,49.632Z" style="fill:rgb(255,167,36);"/>
            </g>
        </g>
        <path d="M79.062,24.173L79.041,24.162C78.973,24.132 78.904,24.1 78.837,24.069L42.392,7.337C42.392,7.337 45.457,21.441 46.85,25.356C46.85,25.356 5.096,12.875 0,11.686C1.67,18.206 30.607,74.178 30.607,74.178C36.455,86.051 50.001,92.663 64.129,92.663C83.94,92.663 99.999,76.604 99.999,56.794C100,42.313 91.418,29.837 79.062,24.173Z" style="fill:none;stroke-width:2.63px;stroke:rgb(255,193,0);"/>
    </g>
</svg>
