<?xml version="1.0" standalone="no"?>
<!DOCTYPE svg PUBLIC "-//W3C//DTD SVG 1.1//EN" "http://www.w3.org/Graphics/SVG/1.1/DTD/svg11.dtd">
<svg width="100%" height="100%" viewBox="0 0 120 120" version="1.1" xmlns="http://www.w3.org/2000/svg" xmlns:xlink="http://www.w3.org/1999/xlink" xml:space="preserve" style="fill-rule:evenodd;clip-rule:evenodd;stroke-linejoin:round;stroke-miterlimit:1.41421;">
    <g transform="matrix(2.09028,0,0,2.09028,-77.3545,-78.8499)">
        <circle cx="65.711" cy="66.426" r="28.704" style="fill:rgb(0,55,116);"/>
    </g>
    <g transform="matrix(1.45961,0,0,1.45961,-12.1042,-12.4645)">
        <path d="M61.287,67.735C55.819,67.735 50.88,65.831 48.033,63.022C46.43,61.457 45.487,59.572 45.487,57.611C45.487,52.162 52.727,47.506 61.287,47.506C65.246,47.506 68.923,48.486 71.731,50.089C75.012,51.974 77.124,54.689 77.124,57.611C77.124,61.061 76.332,63.154 72.033,65.039C71.562,65.247 70.676,65.623 69.922,71.223L64.134,67.641L63.738,67.698C63.228,67.773 63.003,67.773 62.814,67.773C62.681,67.773 62.549,67.773 62.399,67.754C62.136,67.754 61.796,67.735 61.287,67.735Z" style="fill:rgb(82,249,255);fill-rule:nonzero;"/>
        <clipPath id="_clip1">
            <path d="M61.287,67.735C55.819,67.735 50.88,65.831 48.033,63.022C46.43,61.457 45.487,59.572 45.487,57.611C45.487,52.162 52.727,47.506 61.287,47.506C65.246,47.506 68.923,48.486 71.731,50.089C75.012,51.974 77.124,54.689 77.124,57.611C77.124,61.061 76.332,63.154 72.033,65.039C71.562,65.247 70.676,65.623 69.922,71.223L64.134,67.641L63.738,67.698C63.228,67.773 63.003,67.773 62.814,67.773C62.681,67.773 62.549,67.773 62.399,67.754C62.136,67.754 61.796,67.735 61.287,67.735Z" clip-rule="nonzero"/>
        </clipPath>
        <g clip-path="url(#_clip1)">
            <g transform="matrix(1,0,0,1,1.612,0.9145)">
                <path d="M61.287,67.735C55.819,67.735 50.88,65.831 48.033,63.022C46.43,61.457 45.487,59.572 45.487,57.611C45.487,52.162 52.727,47.506 61.287,47.506C65.246,47.506 68.923,48.486 71.731,50.089C75.012,51.974 77.124,54.689 77.124,57.611C77.124,61.061 76.332,63.154 72.033,65.039C71.562,65.247 70.676,65.623 69.922,71.223L64.134,67.641L63.738,67.698C63.228,67.773 63.003,67.773 62.814,67.773C62.681,67.773 62.549,67.773 62.399,67.754C62.136,67.754 61.796,67.735 61.287,67.735Z" style="fill:rgb(148,249,255);fill-rule:nonzero;"/>
            </g>
        </g>
        <path d="M61.287,67.735C55.819,67.735 50.88,65.831 48.033,63.022C46.43,61.457 45.487,59.572 45.487,57.611C45.487,52.162 52.727,47.506 61.287,47.506C65.246,47.506 68.923,48.486 71.731,50.089C75.012,51.974 77.124,54.689 77.124,57.611C77.124,61.061 76.332,63.154 72.033,65.039C71.562,65.247 70.676,65.623 69.922,71.223L64.134,67.641L63.738,67.698C63.228,67.773 63.003,67.773 62.814,67.773C62.681,67.773 62.549,67.773 62.399,67.754C62.136,67.754 61.796,67.735 61.287,67.735Z" style="fill:none;stroke-width:1.03px;stroke:rgb(175,249,255);"/>
        <path d="M44.563,62.965C43.414,62.89 42.301,62.757 41.208,62.588L34.816,68.188L33.345,60.326C26.313,57.272 21.675,51.936 21.675,45.847C21.675,36.364 33.063,28.653 47.089,28.653C61.135,28.653 72.523,36.364 72.523,45.847C72.523,46.337 72.504,46.808 72.429,47.261C69.374,45.639 65.509,44.678 61.286,44.678C51.049,44.678 42.998,50.372 42.998,57.612C42.999,59.515 43.564,61.344 44.563,62.965Z" style="fill:rgb(82,249,255);fill-rule:nonzero;"/>
        <clipPath id="_clip2">
            <path d="M44.563,62.965C43.414,62.89 42.301,62.757 41.208,62.588L34.816,68.188L33.345,60.326C26.313,57.272 21.675,51.936 21.675,45.847C21.675,36.364 33.063,28.653 47.089,28.653C61.135,28.653 72.523,36.364 72.523,45.847C72.523,46.337 72.504,46.808 72.429,47.261C69.374,45.639 65.509,44.678 61.286,44.678C51.049,44.678 42.998,50.372 42.998,57.612C42.999,59.515 43.564,61.344 44.563,62.965Z" clip-rule="nonzero"/>
        </clipPath>
        <g clip-path="url(#_clip2)">
            <g transform="matrix(1,0,0,1,2.3005,1.10371)">
                <path d="M44.563,62.965C43.414,62.89 42.301,62.757 41.208,62.588L34.816,68.188L30.605,67.084C23.573,64.03 21.675,51.936 21.675,45.847C21.675,36.364 33.063,28.653 47.089,28.653C61.135,28.653 72.523,36.364 72.523,45.847C72.523,46.337 72.504,46.808 72.429,47.261C69.374,45.639 65.509,44.678 61.286,44.678C51.049,44.678 42.998,50.372 42.998,57.612C42.999,59.515 43.564,61.344 44.563,62.965Z" style="fill:rgb(148,249,255);fill-rule:nonzero;"/>
            </g>
        </g>
        <path d="M44.563,62.965C43.414,62.89 42.301,62.757 41.208,62.588L34.816,68.188L33.345,60.326C26.313,57.272 21.675,51.936 21.675,45.847C21.675,36.364 33.063,28.653 47.089,28.653C61.135,28.653 72.523,36.364 72.523,45.847C72.523,46.337 72.504,46.808 72.429,47.261C69.374,45.639 65.509,44.678 61.286,44.678C51.049,44.678 42.998,50.372 42.998,57.612C42.999,59.515 43.564,61.344 44.563,62.965Z" style="fill:none;stroke-width:1.03px;stroke:rgb(175,249,255);"/>
    </g>
</svg>
