<svg xmlns="http://www.w3.org/2000/svg" viewBox="0 0 35 35" height="35" width="35"><title>star-15.svg</title><rect fill="none" x="0" y="0" width="35" height="35"></rect><rect x="4" y="4" rx="16" ry="16" width="27" height="27" stroke="rgba(140,91,0,0.75)" style="stroke-linejoin:round;stroke-miterlimit:4;" fill="rgba(140,91,0,0.75)" stroke-width="3"></rect><rect x="4" y="4" width="27" height="27" rx="16" ry="16" fill="#ffa500"></rect><path fill="rgba(255,255,255,0.5)" transform="translate(10 10)" d="M7.5,0l-2,5h-5l4,3.5l-2,6l5-3.5
	l5,3.5l-2-6l4-3.5h-5L7.5,0z" style="stroke-linejoin:round;stroke-miterlimit:4;" stroke="rgba(255,255,255,0.5)" stroke-width="5"></path><path fill="#8c5b00" transform="translate(10 10)" d="M7.5,0l-2,5h-5l4,3.5l-2,6l5-3.5
	l5,3.5l-2-6l4-3.5h-5L7.5,0z"></path></svg>